<svg id="Capa_1" data-name="Capa 1" xmlns="http://www.w3.org/2000/svg" viewBox="0 0 94.4 92.07"><path class="cls-1" d="M49.5,4A47.21,47.21,0,0,0,34.58,96c2.36.44,3.12-1,3.12-2.27V84.9c-13.13,2.85-15.86-5.57-15.86-5.57-2.15-5.46-5.25-6.91-5.25-6.91-4.28-2.93.33-2.87.33-2.87,4.74.33,7.23,4.87,7.23,4.87,4.21,7.21,11,5.13,13.74,3.92a10,10,0,0,1,3-6.31C30.4,70.83,19.38,66.78,19.38,48.7A18.32,18.32,0,0,1,24.24,36c-.48-1.19-2.1-6,.46-12.49,0,0,4-1.27,13,4.84a44.69,44.69,0,0,1,23.63,0c9-6.11,13-4.84,13-4.84,2.57,6.5.95,11.3.47,12.49A18.27,18.27,0,0,1,79.61,48.7c0,18.13-11,22.12-21.55,23.29,1.69,1.46,3.24,4.33,3.24,8.74v13c0,1.26.75,2.73,3.15,2.27a47.21,47.21,0,0,0-15-92Z" transform="translate(-2.3 -3.96)"/></svg>